<?xml version="1.0" encoding="UTF-8" standalone="no"?>
<svg
   xmlns:dc="http://purl.org/dc/elements/1.1/"
   xmlns:cc="http://creativecommons.org/ns#"
   xmlns:rdf="http://www.w3.org/1999/02/22-rdf-syntax-ns#"
   xmlns:svg="http://www.w3.org/2000/svg"
   xmlns="http://www.w3.org/2000/svg"
   xmlns:xlink="http://www.w3.org/1999/xlink"
   xmlns:sodipodi="http://sodipodi.sourceforge.net/DTD/sodipodi-0.dtd"
   xmlns:inkscape="http://www.inkscape.org/namespaces/inkscape"
   enable-background="new 0 0 720.786 507.304"
   version="1.1"
   viewBox="0 0 720.786 507.304"
   x="0px"
   xml:space="preserve"
   y="0px"
   id="svg2"
   inkscape:version="0.91 r13725"
   width="100%"
   height="100%"
   sodipodi:docname="blackbeardflag2.svg"><metadata
     id="metadata78"><rdf:RDF><cc:Work
         rdf:about=""><dc:format>image/svg+xml</dc:format><dc:type
           rdf:resource="http://purl.org/dc/dcmitype/StillImage" /><dc:title /></cc:Work></rdf:RDF></metadata><defs
     id="defs76"><linearGradient
       x1="149.3763"
       y1="26.401039"
       x2="265.63263"
       y2="26.401039"
       id="linearGradient6531"
       xlink:href="#radialGradient5897"
       gradientUnits="userSpaceOnUse"
       spreadMethod="reflect" /><radialGradient
       cx="244.5547"
       cy="159.1611"
       r="136.7274"
       fx="244.5547"
       fy="159.1611"
       id="radialGradient5897"
       gradientUnits="userSpaceOnUse"
       gradientTransform="matrix(1,0,0,0.7583,0,112.573)"><stop
         id="stop5903"
         style="stop-color:#ffe268;stop-opacity:1"
         offset="0" /><stop
         id="stop5547"
         style="stop-color:#e9c034;stop-opacity:1"
         offset="0.70909089" /><stop
         id="stop5907"
         style="stop-color:#d49e00;stop-opacity:1"
         offset="1" /></radialGradient><radialGradient
       cx="244.5547"
       cy="159.1611"
       r="136.7274"
       fx="244.5547"
       fy="159.1611"
       id="radialGradient4820"
       gradientUnits="userSpaceOnUse"
       gradientTransform="matrix(1,0,0,0.7583,0,112.573)"><stop
         id="stop4822"
         style="stop-color:#ffe268;stop-opacity:1"
         offset="0" /><stop
         id="stop4824"
         style="stop-color:#e9c034;stop-opacity:1"
         offset="0.70909089" /><stop
         id="stop4826"
         style="stop-color:#d49e00;stop-opacity:1"
         offset="1" /></radialGradient><radialGradient
       cx="244.5547"
       cy="159.1611"
       r="136.7274"
       fx="244.5547"
       fy="159.1611"
       id="radialGradient4829"
       gradientUnits="userSpaceOnUse"
       gradientTransform="matrix(1,0,0,0.7583,0,112.573)"><stop
         id="stop4831"
         style="stop-color:#ffe268;stop-opacity:1"
         offset="0" /><stop
         id="stop4833"
         style="stop-color:#e9c034;stop-opacity:1"
         offset="0.70909089" /><stop
         id="stop4835"
         style="stop-color:#d49e00;stop-opacity:1"
         offset="1" /></radialGradient><radialGradient
       cx="244.5547"
       cy="159.1611"
       r="136.7274"
       fx="244.5547"
       fy="159.1611"
       id="radialGradient4838"
       gradientUnits="userSpaceOnUse"
       gradientTransform="matrix(1,0,0,0.7583,0,112.573)"><stop
         id="stop4840"
         style="stop-color:#ffe268;stop-opacity:1"
         offset="0" /><stop
         id="stop4842"
         style="stop-color:#e9c034;stop-opacity:1"
         offset="0.70909089" /><stop
         id="stop4844"
         style="stop-color:#d49e00;stop-opacity:1"
         offset="1" /></radialGradient><radialGradient
       cx="244.5547"
       cy="159.1611"
       r="136.7274"
       fx="244.5547"
       fy="159.1611"
       id="radialGradient4847"
       gradientUnits="userSpaceOnUse"
       gradientTransform="matrix(1,0,0,0.7583,0,112.573)"><stop
         id="stop4849"
         style="stop-color:#ffe268;stop-opacity:1"
         offset="0" /><stop
         id="stop4851"
         style="stop-color:#e9c034;stop-opacity:1"
         offset="0.70909089" /><stop
         id="stop4853"
         style="stop-color:#d49e00;stop-opacity:1"
         offset="1" /></radialGradient><radialGradient
       cx="244.5547"
       cy="159.1611"
       r="136.7274"
       fx="244.5547"
       fy="159.1611"
       id="radialGradient4856"
       gradientUnits="userSpaceOnUse"
       gradientTransform="matrix(1,0,0,0.7583,0,112.573)"><stop
         id="stop4858"
         style="stop-color:#ffe268;stop-opacity:1"
         offset="0" /><stop
         id="stop4860"
         style="stop-color:#e9c034;stop-opacity:1"
         offset="0.70909089" /><stop
         id="stop4862"
         style="stop-color:#d49e00;stop-opacity:1"
         offset="1" /></radialGradient><radialGradient
       cx="244.5547"
       cy="159.1611"
       r="136.7274"
       fx="244.5547"
       fy="159.1611"
       id="radialGradient4865"
       gradientUnits="userSpaceOnUse"
       gradientTransform="matrix(1,0,0,0.7583,0,112.573)"><stop
         id="stop4867"
         style="stop-color:#ffe268;stop-opacity:1"
         offset="0" /><stop
         id="stop4869"
         style="stop-color:#e9c034;stop-opacity:1"
         offset="0.70909089" /><stop
         id="stop4871"
         style="stop-color:#d49e00;stop-opacity:1"
         offset="1" /></radialGradient><linearGradient
       x1="150"
       y1="78.95488"
       x2="4.6621695"
       y2="78.95488"
       id="linearGradient6597"
       xlink:href="#radialGradient5897"
       gradientUnits="userSpaceOnUse"
       gradientTransform="matrix(0.824382,0,0,0.394319,19.964897,125.80778)"
       spreadMethod="reflect" /><radialGradient
       cx="244.5547"
       cy="159.1611"
       r="136.7274"
       fx="244.5547"
       fy="159.1611"
       id="radialGradient4874"
       gradientUnits="userSpaceOnUse"
       gradientTransform="matrix(1,0,0,0.7583,0,112.573)"><stop
         id="stop4876"
         style="stop-color:#ffe268;stop-opacity:1"
         offset="0" /><stop
         id="stop4878"
         style="stop-color:#e9c034;stop-opacity:1"
         offset="0.70909089" /><stop
         id="stop4880"
         style="stop-color:#d49e00;stop-opacity:1"
         offset="1" /></radialGradient><radialGradient
       cx="32.278076"
       cy="48.625668"
       r="1.9097857"
       fx="32.278076"
       fy="48.625668"
       id="radialGradient5219"
       xlink:href="#linearGradient4130"
       gradientUnits="userSpaceOnUse"
       gradientTransform="matrix(2.23615,0,0,2.16102,115.117,-15.6099)" /><linearGradient
       id="linearGradient4130"><stop
         id="stop4132"
         style="stop-color:#ffffff;stop-opacity:1"
         offset="0" /><stop
         id="stop4134"
         style="stop-color:#908c8c;stop-opacity:1"
         offset="1" /></linearGradient><radialGradient
       cx="32.278076"
       cy="48.625668"
       r="1.9097857"
       fx="32.278076"
       fy="48.625668"
       id="radialGradient5221"
       xlink:href="#linearGradient4130"
       gradientUnits="userSpaceOnUse"
       gradientTransform="matrix(2.23615,0,0,2.16102,55.7544,-15.6099)" /><radialGradient
       cx="32.278076"
       cy="48.625668"
       r="1.9097857"
       fx="32.278076"
       fy="48.625668"
       id="radialGradient5223"
       xlink:href="#linearGradient4130"
       gradientUnits="userSpaceOnUse"
       gradientTransform="matrix(2.23615,0,0,2.16102,175.066,-15.6099)" /><radialGradient
       cx="32.278076"
       cy="48.625668"
       r="1.9097857"
       fx="32.278076"
       fy="48.625668"
       id="radialGradient5225"
       xlink:href="#linearGradient4130"
       gradientUnits="userSpaceOnUse"
       gradientTransform="matrix(2.23615,0,0,2.16102,-4.19517,-15.6099)" /><linearGradient
       x1="66.168907"
       y1="37.199841"
       x2="123.58992"
       y2="37.199841"
       id="linearGradient5227"
       xlink:href="#radialGradient5897"
       gradientUnits="userSpaceOnUse"
       gradientTransform="matrix(2.23615,0,0,2.23615,8.41626,19.5339)" /><radialGradient
       cx="244.5547"
       cy="159.1611"
       r="136.7274"
       fx="244.5547"
       fy="159.1611"
       id="radialGradient4908"
       gradientUnits="userSpaceOnUse"
       gradientTransform="matrix(1,0,0,0.7583,0,112.573)"><stop
         id="stop4910"
         style="stop-color:#ffe268;stop-opacity:1"
         offset="0" /><stop
         id="stop4912"
         style="stop-color:#e9c034;stop-opacity:1"
         offset="0.70909089" /><stop
         id="stop4914"
         style="stop-color:#d49e00;stop-opacity:1"
         offset="1" /></radialGradient><radialGradient
       cx="244.5547"
       cy="159.1611"
       r="136.7274"
       fx="244.5547"
       fy="159.1611"
       id="radialGradient4917"
       gradientUnits="userSpaceOnUse"
       gradientTransform="matrix(1,0,0,0.7583,0,112.573)"><stop
         id="stop4919"
         style="stop-color:#ffe268;stop-opacity:1"
         offset="0" /><stop
         id="stop4921"
         style="stop-color:#e9c034;stop-opacity:1"
         offset="0.70909089" /><stop
         id="stop4923"
         style="stop-color:#d49e00;stop-opacity:1"
         offset="1" /></radialGradient><radialGradient
       cx="244.5547"
       cy="159.1611"
       r="136.7274"
       fx="244.5547"
       fy="159.1611"
       id="radialGradient4926"
       gradientUnits="userSpaceOnUse"
       gradientTransform="matrix(1,0,0,0.7583,0,112.573)"><stop
         id="stop4928"
         style="stop-color:#ffe268;stop-opacity:1"
         offset="0" /><stop
         id="stop4930"
         style="stop-color:#e9c034;stop-opacity:1"
         offset="0.70909089" /><stop
         id="stop4932"
         style="stop-color:#d49e00;stop-opacity:1"
         offset="1" /></radialGradient><linearGradient
       x1="66.168907"
       y1="37.199841"
       x2="123.58992"
       y2="37.199841"
       id="linearGradient5233"
       xlink:href="#radialGradient5897"
       gradientUnits="userSpaceOnUse"
       gradientTransform="matrix(-2.23615,0,0,2.23615,307.522,19.5339)" /><radialGradient
       cx="244.5547"
       cy="159.1611"
       r="136.7274"
       fx="244.5547"
       fy="159.1611"
       id="radialGradient4935"
       gradientUnits="userSpaceOnUse"
       gradientTransform="matrix(1,0,0,0.7583,0,112.573)"><stop
         id="stop4937"
         style="stop-color:#ffe268;stop-opacity:1"
         offset="0" /><stop
         id="stop4939"
         style="stop-color:#e9c034;stop-opacity:1"
         offset="0.70909089" /><stop
         id="stop4941"
         style="stop-color:#d49e00;stop-opacity:1"
         offset="1" /></radialGradient><radialGradient
       cx="244.5547"
       cy="159.1611"
       r="136.7274"
       fx="244.5547"
       fy="159.1611"
       id="radialGradient4944"
       gradientUnits="userSpaceOnUse"
       gradientTransform="matrix(1,0,0,0.7583,0,112.573)"><stop
         id="stop4946"
         style="stop-color:#ffe268;stop-opacity:1"
         offset="0" /><stop
         id="stop4948"
         style="stop-color:#e9c034;stop-opacity:1"
         offset="0.70909089" /><stop
         id="stop4950"
         style="stop-color:#d49e00;stop-opacity:1"
         offset="1" /></radialGradient><radialGradient
       cx="244.5547"
       cy="159.1611"
       r="136.7274"
       fx="244.5547"
       fy="159.1611"
       id="radialGradient4953"
       gradientUnits="userSpaceOnUse"
       gradientTransform="matrix(1,0,0,0.7583,0,112.573)"><stop
         id="stop4955"
         style="stop-color:#ffe268;stop-opacity:1"
         offset="0" /><stop
         id="stop4957"
         style="stop-color:#e9c034;stop-opacity:1"
         offset="0.70909089" /><stop
         id="stop4959"
         style="stop-color:#d49e00;stop-opacity:1"
         offset="1" /></radialGradient><radialGradient
       cx="32.278076"
       cy="48.625668"
       r="1.9097857"
       fx="32.278076"
       fy="48.625668"
       id="radialGradient5239"
       xlink:href="#linearGradient4130"
       gradientUnits="userSpaceOnUse"
       gradientTransform="matrix(1,0,0,0.966399,0,1.63388)" /><radialGradient
       cx="32.278076"
       cy="48.625668"
       r="1.9097857"
       fx="32.278076"
       fy="48.625668"
       id="radialGradient5241"
       xlink:href="#linearGradient4130"
       gradientUnits="userSpaceOnUse"
       gradientTransform="matrix(1,0,0,0.966399,0,1.63388)" /><radialGradient
       cx="32.278076"
       cy="48.625668"
       r="1.9097857"
       fx="32.278076"
       fy="48.625668"
       id="radialGradient5243"
       xlink:href="#linearGradient4130"
       gradientUnits="userSpaceOnUse"
       gradientTransform="matrix(1,0,0,0.966399,0,1.63388)" /><radialGradient
       cx="32.278076"
       cy="48.625668"
       r="1.9097857"
       fx="32.278076"
       fy="48.625668"
       id="radialGradient5245"
       xlink:href="#linearGradient4130"
       gradientUnits="userSpaceOnUse"
       gradientTransform="matrix(1,0,0,0.966399,0,1.63388)" /><radialGradient
       cx="32.278076"
       cy="48.625668"
       r="1.9097857"
       fx="32.278076"
       fy="48.625668"
       id="radialGradient5247"
       xlink:href="#linearGradient4130"
       gradientUnits="userSpaceOnUse"
       gradientTransform="matrix(1,0,0,0.966399,0,1.63388)" /><radialGradient
       cx="32.278076"
       cy="48.625668"
       r="1.9097857"
       fx="32.278076"
       fy="48.625668"
       id="radialGradient5249"
       xlink:href="#linearGradient4130"
       gradientUnits="userSpaceOnUse"
       gradientTransform="matrix(1,0,0,0.966399,0,1.63388)" /><radialGradient
       cx="32.278076"
       cy="48.625668"
       r="1.9097857"
       fx="32.278076"
       fy="48.625668"
       id="radialGradient5251"
       xlink:href="#linearGradient4130"
       gradientUnits="userSpaceOnUse"
       gradientTransform="matrix(1,0,0,0.966399,0,1.63388)" /><radialGradient
       cx="32.278076"
       cy="48.625668"
       r="1.9097857"
       fx="32.278076"
       fy="48.625668"
       id="radialGradient5253"
       xlink:href="#linearGradient4130"
       gradientUnits="userSpaceOnUse"
       gradientTransform="matrix(1,0,0,0.966399,0,1.63388)" /><radialGradient
       cx="41.525555"
       cy="53.008888"
       r="3.5654075"
       fx="40.477501"
       fy="51.564545"
       id="radialGradient5255"
       xlink:href="#linearGradient4261"
       gradientUnits="userSpaceOnUse"
       gradientTransform="matrix(3.03609,0,0,1.95828,-24.4232,20.4295)" /><linearGradient
       id="linearGradient4261"><stop
         id="stop4263"
         style="stop-color:#8c86ff;stop-opacity:1"
         offset="0" /><stop
         id="stop4265"
         style="stop-color:#0018b9;stop-opacity:0.97777802"
         offset="1" /></linearGradient><radialGradient
       cx="41.525555"
       cy="53.008888"
       r="3.5654075"
       fx="40.477501"
       fy="51.564545"
       id="radialGradient5257"
       xlink:href="#linearGradient4261"
       gradientUnits="userSpaceOnUse"
       gradientTransform="matrix(3.03609,0,0,1.95828,89.0305,20.4295)" /><linearGradient
       x1="157.98055"
       y1="35.104668"
       x2="284.86987"
       y2="35.10466"
       id="linearGradient6877"
       xlink:href="#radialGradient5897"
       gradientUnits="userSpaceOnUse"
       gradientTransform="translate(-30.7804,-67.2473)"
       spreadMethod="reflect" /><radialGradient
       cx="244.5547"
       cy="159.1611"
       r="136.7274"
       fx="244.5547"
       fy="159.1611"
       id="radialGradient5029"
       gradientUnits="userSpaceOnUse"
       gradientTransform="matrix(1,0,0,0.7583,0,112.573)"><stop
         id="stop5031"
         style="stop-color:#ffe268;stop-opacity:1"
         offset="0" /><stop
         id="stop5033"
         style="stop-color:#e9c034;stop-opacity:1"
         offset="0.70909089" /><stop
         id="stop5035"
         style="stop-color:#d49e00;stop-opacity:1"
         offset="1" /></radialGradient><radialGradient
       cx="244.5547"
       cy="159.1611"
       r="136.7274"
       fx="244.5547"
       fy="159.1611"
       id="radialGradient5038"
       gradientUnits="userSpaceOnUse"
       gradientTransform="matrix(1,0,0,0.7583,0,112.573)"><stop
         id="stop5040"
         style="stop-color:#ffe268;stop-opacity:1"
         offset="0" /><stop
         id="stop5042"
         style="stop-color:#e9c034;stop-opacity:1"
         offset="0.70909089" /><stop
         id="stop5044"
         style="stop-color:#d49e00;stop-opacity:1"
         offset="1" /></radialGradient><radialGradient
       cx="244.5547"
       cy="159.1611"
       r="136.7274"
       fx="244.5547"
       fy="159.1611"
       id="radialGradient5047"
       gradientUnits="userSpaceOnUse"
       gradientTransform="matrix(1,0,0,0.7583,0,112.573)"><stop
         id="stop5049"
         style="stop-color:#ffe268;stop-opacity:1"
         offset="0" /><stop
         id="stop5051"
         style="stop-color:#e9c034;stop-opacity:1"
         offset="0.70909089" /><stop
         id="stop5053"
         style="stop-color:#d49e00;stop-opacity:1"
         offset="1" /></radialGradient><radialGradient
       cx="244.5547"
       cy="159.1611"
       r="136.7274"
       fx="244.5547"
       fy="159.1611"
       id="radialGradient5056"
       gradientUnits="userSpaceOnUse"
       gradientTransform="matrix(1,0,0,0.7583,0,112.573)"><stop
         id="stop5058"
         style="stop-color:#ffe268;stop-opacity:1"
         offset="0" /><stop
         id="stop5060"
         style="stop-color:#e9c034;stop-opacity:1"
         offset="0.70909089" /><stop
         id="stop5062"
         style="stop-color:#d49e00;stop-opacity:1"
         offset="1" /></radialGradient><radialGradient
       cx="244.5547"
       cy="159.1611"
       r="136.7274"
       fx="244.5547"
       fy="159.1611"
       id="radialGradient5065"
       gradientUnits="userSpaceOnUse"
       gradientTransform="matrix(1,0,0,0.7583,0,112.573)"><stop
         id="stop5067"
         style="stop-color:#ffe268;stop-opacity:1"
         offset="0" /><stop
         id="stop5069"
         style="stop-color:#e9c034;stop-opacity:1"
         offset="0.70909089" /><stop
         id="stop5071"
         style="stop-color:#d49e00;stop-opacity:1"
         offset="1" /></radialGradient><radialGradient
       cx="244.5547"
       cy="159.1611"
       r="136.7274"
       fx="244.5547"
       fy="159.1611"
       id="radialGradient5074"
       gradientUnits="userSpaceOnUse"
       gradientTransform="matrix(1,0,0,0.7583,0,112.573)"><stop
         id="stop5076"
         style="stop-color:#ffe268;stop-opacity:1"
         offset="0" /><stop
         id="stop5078"
         style="stop-color:#e9c034;stop-opacity:1"
         offset="0.70909089" /><stop
         id="stop5080"
         style="stop-color:#d49e00;stop-opacity:1"
         offset="1" /></radialGradient><linearGradient
       x1="-161.71248"
       y1="-6.2662263"
       x2="-284.42191"
       y2="-38.566357"
       id="linearGradient6889"
       xlink:href="#radialGradient5897"
       gradientUnits="userSpaceOnUse"
       gradientTransform="translate(46.8845,-57.1968)"
       spreadMethod="reflect" /><radialGradient
       cx="244.5547"
       cy="159.1611"
       r="136.7274"
       fx="244.5547"
       fy="159.1611"
       id="radialGradient5083"
       gradientUnits="userSpaceOnUse"
       gradientTransform="matrix(1,0,0,0.7583,0,112.573)"><stop
         id="stop5085"
         style="stop-color:#ffe268;stop-opacity:1"
         offset="0" /><stop
         id="stop5087"
         style="stop-color:#e9c034;stop-opacity:1"
         offset="0.70909089" /><stop
         id="stop5089"
         style="stop-color:#d49e00;stop-opacity:1"
         offset="1" /></radialGradient><radialGradient
       cx="244.5547"
       cy="159.1611"
       r="136.7274"
       fx="244.5547"
       fy="159.1611"
       id="radialGradient5092"
       gradientUnits="userSpaceOnUse"
       gradientTransform="matrix(1,0,0,0.7583,0,112.573)"><stop
         id="stop5094"
         style="stop-color:#ffe268;stop-opacity:1"
         offset="0" /><stop
         id="stop5096"
         style="stop-color:#e9c034;stop-opacity:1"
         offset="0.70909089" /><stop
         id="stop5098"
         style="stop-color:#d49e00;stop-opacity:1"
         offset="1" /></radialGradient><radialGradient
       cx="244.5547"
       cy="159.1611"
       r="136.7274"
       fx="244.5547"
       fy="159.1611"
       id="radialGradient5101"
       gradientUnits="userSpaceOnUse"
       gradientTransform="matrix(1,0,0,0.7583,0,112.573)"><stop
         id="stop5103"
         style="stop-color:#ffe268;stop-opacity:1"
         offset="0" /><stop
         id="stop5105"
         style="stop-color:#e9c034;stop-opacity:1"
         offset="0.70909089" /><stop
         id="stop5107"
         style="stop-color:#d49e00;stop-opacity:1"
         offset="1" /></radialGradient><radialGradient
       cx="244.5547"
       cy="159.1611"
       r="136.7274"
       fx="244.5547"
       fy="159.1611"
       id="radialGradient5110"
       gradientUnits="userSpaceOnUse"
       gradientTransform="matrix(1,0,0,0.7583,0,112.573)"><stop
         id="stop5112"
         style="stop-color:#ffe268;stop-opacity:1"
         offset="0" /><stop
         id="stop5114"
         style="stop-color:#e9c034;stop-opacity:1"
         offset="0.70909089" /><stop
         id="stop5116"
         style="stop-color:#d49e00;stop-opacity:1"
         offset="1" /></radialGradient><linearGradient
       x1="157.98055"
       y1="35.104668"
       x2="284.86987"
       y2="35.10466"
       id="linearGradient7003"
       xlink:href="#radialGradient5897"
       gradientUnits="userSpaceOnUse"
       gradientTransform="translate(-14.346702,63.100275)"
       spreadMethod="reflect" /><radialGradient
       cx="244.5547"
       cy="159.1611"
       r="136.7274"
       fx="244.5547"
       fy="159.1611"
       id="radialGradient5119"
       gradientUnits="userSpaceOnUse"
       gradientTransform="matrix(1,0,0,0.7583,0,112.573)"><stop
         id="stop5121"
         style="stop-color:#ffe268;stop-opacity:1"
         offset="0" /><stop
         id="stop5123"
         style="stop-color:#e9c034;stop-opacity:1"
         offset="0.70909089" /><stop
         id="stop5125"
         style="stop-color:#d49e00;stop-opacity:1"
         offset="1" /></radialGradient><radialGradient
       cx="244.5547"
       cy="159.1611"
       r="136.7274"
       fx="244.5547"
       fy="159.1611"
       id="radialGradient5128"
       gradientUnits="userSpaceOnUse"
       gradientTransform="matrix(1,0,0,0.7583,0,112.573)"><stop
         id="stop5130"
         style="stop-color:#ffe268;stop-opacity:1"
         offset="0" /><stop
         id="stop5132"
         style="stop-color:#e9c034;stop-opacity:1"
         offset="0.70909089" /><stop
         id="stop5134"
         style="stop-color:#d49e00;stop-opacity:1"
         offset="1" /></radialGradient><radialGradient
       cx="244.5547"
       cy="159.1611"
       r="136.7274"
       fx="244.5547"
       fy="159.1611"
       id="radialGradient5137"
       gradientUnits="userSpaceOnUse"
       gradientTransform="matrix(1,0,0,0.7583,0,112.573)"><stop
         id="stop5139"
         style="stop-color:#ffe268;stop-opacity:1"
         offset="0" /><stop
         id="stop5141"
         style="stop-color:#e9c034;stop-opacity:1"
         offset="0.70909089" /><stop
         id="stop5143"
         style="stop-color:#d49e00;stop-opacity:1"
         offset="1" /></radialGradient><linearGradient
       x1="156.22601"
       y1="42.233017"
       x2="282.9848"
       y2="47.987476"
       id="linearGradient7009"
       xlink:href="#radialGradient5897"
       gradientUnits="userSpaceOnUse"
       gradientTransform="translate(-17.193558,62.384727)"
       spreadMethod="reflect" /><radialGradient
       cx="244.5547"
       cy="159.1611"
       r="136.7274"
       fx="244.5547"
       fy="159.1611"
       id="radialGradient5146"
       gradientUnits="userSpaceOnUse"
       gradientTransform="matrix(1,0,0,0.7583,0,112.573)"><stop
         id="stop5148"
         style="stop-color:#ffe268;stop-opacity:1"
         offset="0" /><stop
         id="stop5150"
         style="stop-color:#e9c034;stop-opacity:1"
         offset="0.70909089" /><stop
         id="stop5152"
         style="stop-color:#d49e00;stop-opacity:1"
         offset="1" /></radialGradient><radialGradient
       cx="244.5547"
       cy="159.1611"
       r="136.7274"
       fx="244.5547"
       fy="159.1611"
       id="radialGradient5155"
       gradientUnits="userSpaceOnUse"
       gradientTransform="matrix(1,0,0,0.7583,0,112.573)"><stop
         id="stop5157"
         style="stop-color:#ffe268;stop-opacity:1"
         offset="0" /><stop
         id="stop5159"
         style="stop-color:#e9c034;stop-opacity:1"
         offset="0.70909089" /><stop
         id="stop5161"
         style="stop-color:#d49e00;stop-opacity:1"
         offset="1" /></radialGradient><radialGradient
       cx="244.5547"
       cy="159.1611"
       r="136.7274"
       fx="244.5547"
       fy="159.1611"
       id="radialGradient5164"
       gradientUnits="userSpaceOnUse"
       gradientTransform="matrix(1,0,0,0.7583,0,112.573)"><stop
         id="stop5166"
         style="stop-color:#ffe268;stop-opacity:1"
         offset="0" /><stop
         id="stop5168"
         style="stop-color:#e9c034;stop-opacity:1"
         offset="0.70909089" /><stop
         id="stop5170"
         style="stop-color:#d49e00;stop-opacity:1"
         offset="1" /></radialGradient><radialGradient
       cx="244.5547"
       cy="159.1611"
       r="136.7274"
       fx="244.5547"
       fy="159.1611"
       id="radialGradient5173"
       gradientUnits="userSpaceOnUse"
       gradientTransform="matrix(1,0,0,0.7583,0,112.573)"><stop
         id="stop5175"
         style="stop-color:#ffe268;stop-opacity:1"
         offset="0" /><stop
         id="stop5177"
         style="stop-color:#e9c034;stop-opacity:1"
         offset="0.70909089" /><stop
         id="stop5179"
         style="stop-color:#d49e00;stop-opacity:1"
         offset="1" /></radialGradient><radialGradient
       cx="244.5547"
       cy="159.1611"
       r="136.7274"
       fx="244.5547"
       fy="159.1611"
       id="radialGradient5182"
       gradientUnits="userSpaceOnUse"
       gradientTransform="matrix(1,0,0,0.7583,0,112.573)"><stop
         id="stop5184"
         style="stop-color:#ffe268;stop-opacity:1"
         offset="0" /><stop
         id="stop5186"
         style="stop-color:#e9c034;stop-opacity:1"
         offset="0.70909089" /><stop
         id="stop5188"
         style="stop-color:#d49e00;stop-opacity:1"
         offset="1" /></radialGradient></defs><sodipodi:namedview
     pagecolor="#ffffff"
     bordercolor="#666666"
     borderopacity="1"
     objecttolerance="10"
     gridtolerance="10"
     guidetolerance="10"
     inkscape:pageopacity="0"
     inkscape:pageshadow="2"
     inkscape:window-width="1859"
     inkscape:window-height="1176"
     id="namedview74"
     showgrid="false"
     inkscape:zoom="0.95939711"
     inkscape:cx="411.56615"
     inkscape:cy="256.57872"
     inkscape:window-x="61"
     inkscape:window-y="24"
     inkscape:window-maximized="1"
     inkscape:current-layer="svg2"
     inkscape:snap-grids="false" /><rect
     height="577.77814"
     width="803.46906"
     id="rect4"
     style="clip-rule:evenodd;fill:#000000;fill-rule:evenodd"
     x="-37.998699"
     y="-42.362164" /><path
     d="M351.67,110.59c0.688,0.688-1.75,0.75-3.375-1.625,0-1.625,0-1.125-0.625-1.75s-2.375,0-5.313,0c0-1.813,1.063-1.875-0.813-5s-6.125-3.25-6.125-1.25-1,10.625-1,13c-5.875,2.875-51.875,38.375-54.375,43.25-1.125,1.125-4.938,0.438-7.125-1.75-8.5-12.375-41.375-23.5-46-26.875-10.5-17.5-23.625-0.25-26.125,1.125-1.125,0-9.508,1.921-12.25-0.625-3.188-3.938-3.25-4.875-3.25-7.5,12.25,0,15.438-19.813,15.625-21.75,2.125,0,3.375,0,5.375-3.125s0.688-5.688-0.25-6.625c0-6,0.125-15.188-1.75-16.25v-6.875c1.892-3.777,6.875-13.75,6.875-16.125-2.375-0.75-15.875,10.375-16.75,10.375s-2.912,2.039-4.375-0.75c-1.134-2.163-2.438-4.813-5.625-7-3.25,1.875-2.5,6.875-3.125,7.5-2.5,0.625-6.25,0-8.125-0.625-0.875-3.25-2.169-6.956-3.169-7.956-1.669,0-5.456,5.456-5.456,8.831-2,0-0.5,0.5-4.375-0.625s-9.25-8.625-12.875-10.625c-2.75,5.25,4.875,17.625,5.875,20,0,2.625,0.25,10.375,0.25,11.75-1.375,0-0.688-0.688-1.5,0.125-1.5,2.875-0.625,13.375,0.125,17.25,3.125,0,2.75,1.25,4.25,2.75,0,16.25,8.5,19.125,12.75,20.125,2.581,0.607-0.698,6.732-2.375,7.25-4.85,1.497-8.75,1.625-12.75,1.625-13.75-19.375-28.625,2.125-29.875,3.375-26.313,9.938-41.375,25-45.063,22.813-1.813-6.688-33.438-42.063-35.313-46.188s-1.125-2.875-1.938-8.313c-1.639-10.971-5.12-3.569-8.688-2.563-5.895,1.664-10.625-3.875-11.875-5.125s-1.75-9.375,0.5-9.375c1.043,0,0.01-3.621,0-4.625-4.125-2.75-4.875,2.75-6.125,4s-1,6.5,0,12c2.625,5.25,17.75,14.5,18.625,15.375s2.375,0.125,5.375,6.75c8.398,18.545,28.125,44.75,33.625,52s11.5,5,15,3.75,33.625-12.375,37.75-13.375c1.5,3.25,9.625,9.875,10.875,9.875,0,5.232-1.035,33.503-1.035,40.479s18.31,33.721,21.217,41.861c0,0,0.31,1.027,0.068,2.41-1-1-7.15-6.085-16.125-10.875-12.385-6.609-18.5,5.25-15.5,10.5,0.983,5.94,6.75,24.625,7.5,25.375v5.5c-5.688,5.688-3.438,65.188-1.5,78.625-6.875,6.875-0.525,16.775,0,18.625,0.649,2.284,0,3.875,0,6.375-5.25,12.75-8.5,66.5-7.75,74.75-0.875,4.375-1.125,3.25-4,4.625-2.5,0-17.64,2.251-20.75,3.625-14.375,5.088-12.438,6.313-10.875,7.875,6.375-0.875,10-4.875,16.438-2.688-1.188,0-0.5,0.5-1.75,0.875s0.438,0.438,0.438,2.688c11.125-2.375,27.25-2.75,39.125-1,9.685,1.427,2.25-6.375,1.563-7.063s-3.175-1.494-4.063-4.063c-2.109-6.104-1.625-6.25,0-12.375,8.25-11.125,12.313-55.063,8.25-62.375-2.048-3.687-1-6.5-0.375-11.125,3.188-3.188,2-12.625,2.875-21.875,8.375-6,21.969-52.594,18.813-57.313,0-1.563,2.688-0.813,3.438-0.063,6.063,9.563,11.125,1.125,14.375,1.125,0.875,29,9.625,46.125,15.25,58.125-3.625,11.25,2.125,17.375,3.125,18.375s0,0.603,0,3.75c-8,4.375-4.875,52.375-3.5,59.75s0.5,22.75-0.375,26.875c-9.375,5.625-1.625,9.5,1.25,9.5s20.5-0.625,25-0.625,9,1.875,11.5,1.875,2.188-2.188,0-4.375c3.125-1.375,14.875,2.125,16.5,2.125s3.125-1.125,1.375-2.875c-3.813-3.813-18.118-3.944-21.5-4.5-2.317-0.381-13.375-2.5-14.625-3.75s-2-2.25-3.375-7.375c0-5,5.625-62.25,5.625-80.75,9.75-14.125,0.625-19.375,0.625-20.25s0-2.558,0.5-3.875c6.375-16.75-0.156-70.469-2.938-75.5,0-2.25,0-1.063,0.563-7.25,2-4.75,7.25-6.625,7.25-20.25s-9.875-9.25-13.375-8-9.795,6.68-16.875,4.875c11-17.375,24.125-48.25,16-84.5,7.25-1.625,11-6.125,14.25-9.375,7.75,5.375,37,14.75,41.625,15.5s6.333,4.537,16.438-1.688c39.063-24.063,46.688-50.313,59.938-56.313,9.58-1.90,3.52-5.34,4.21-4.65zm-238.49,49.78c-2.088,0.696-13.921,6.075-19.743,8.163s-3.543-2.088-1.708-2.974,6.837-3.474,10.947-5.505c0.686-0.339,1.708-1.519,7.847-3.48s4.74,3.10,2.65,3.79zm23.16-18.28v8.037c-6.075,0.38-8.67-16.389,1.898-16.389,0,1.58,0.09,6.35-1.90,8.35zm47.40,60.63c-0.759,0-8.353-0.949-11.327-0.316s-2.656-2.401-1.772-3.101c1.931-1.526,8.479-4.746,14.175,0.38,1.70,1.71-0.32,3.04-1.08,3.04zm-9.50-75.63h5.252c2.30,5.01-7.68,3.76-5.25,0zm2.85,9.30c-5.601-1.423-1.582-3.543,0.38-3.923h0.316c2.92-1.24,6.33,3.92-0.70,3.92zm11.33-51.001c4.367,0.57,5.125,5.882-0.38,5.758-7.10-0.160-3.16-6.075,0.38-5.758zm-12.91,13.098c0.823-1.392,1.373-2.164,2.278-3.733,1.222-2.12,1.899-0.38,2.278,0s1.012,1.772,2.088,3.48,0.316,2.214-0.823,2.214-3.228,0-4.936,0-1.71-0.571-0.89-1.963zm2.85,11.263c10.125,0,13.099,3.48-0.854,2.436-12.19,0-6.37-3.45,0.85-2.44zm-11.03-18.224c-6.209,0-3.021-5.818,0-6.977,6.209-2.382,5.269,2.099,5.269,2.666s-0.66,3.797-5.27,4.311zm19.76,121.63c2.658,4.113-6.455,2.215-8.479,1.772s-1.95-0.848-6.633,0.481-4.536-2.791-4.124-3.203c2.08-2.09,12.08-8.99,19.23,0.95zm-35.75-27.47c-6.201,2.405-5.41-3.805-4.746-4.469,1.741-1.739,8.985-6.731,20.882-4.517,3.348,0.739,1.329,3.227-0.253,3.48s-8.92-1.45-15.88,5.51zm33.54,103.10c-4.019,1.551-5.525,0.356-6.645,0-2.117-0.674-5.695-1.329-6.771-2.404-1.076-1.076-1.202-3.923,2.152-3.607s2.784,1.266,4.619,1.582,4.367,0.316,6.328,0.316,4.32,2.56,0.31,4.11zm-1.07-17.91c-1.023-0.443-4.567-3.227-11.401-1.835-2.025,0.506-1.169-2.218-0.506-2.658,1.454-0.965,9.429-3.481,14.048,1.139,3.17,3.17-0.56,4.04-2.14,3.36zm4.48-43.36c-1.519-0.316-10.884-3.855-22.464,0.034-2.974,1.042-4.778-2.696-0.633-3.894,3.249-0.939,14.174-4.682,24.236-0.569,6.70,2.85,0.37,4.75-1.15,4.43zm15.63-42.84c-2.038-0.78-3.987-4.62-11.327-4.936-6.455-1.835-7.657-6.834,2.025-4.936,4.478,1.365,11.517,3.86,13.668,4.999s2.78,7.22-4.37,4.88zm20.12-34.05c-1.519,0.633-10.631,10.631-11.39,11.39-4.864,4.864-3.037-1.456-1.329-3.164,1.297-1.297,8.227-8.733,9.872-10.378,5.67-5.67,4.37,1.52,2.85,2.15zm17.60,9.36h-0.253c-3.354-1.582-13.858-8.226-0.823-3.037s8.91,7.03,1.07,3.04zm30.31,11.01c-1.519,0-1.203,0.316-3.101-0.949-2.195-4.05,1.115-2.553,2.468-1.961,2.15,0.95,2.15,2.91,0.63,2.91z"
     fill="#FFF"
     id="path6" /><path
     d="M338.64,96.198c-0.823-0.394-48.117-52.525-48.815-53.224s-4.946-10.537,3.387-4.785,47.794,49.73,48.439,50.375,1.94,9.999-3.01,7.634z"
     fill="#FFF"
     id="path10"
     style="fill:#ffffff" /><path
     d="M347.68,93.833c0-1.291-6.452,1.398-5.376,6.667,0.538,1.72,2.615-0.86,2.615-2.473,1.004-1.004,1.656-0.771,2.331-1.445s0.43-1.997,0.43-2.749z"
     fill="#FFF"
     id="path12" /><path
     d="M351.82,96.581c-2.738,0-5.113,4.886-6.296,6.069s-0.861,4.839,1.183,2.796,5.161-6.021,5.806-6.667,0.60-2.202-0.69-2.202z"
     fill="#FFF"
     id="path14" /><path
     d="M354.12,101.32c-1.204,1.204-3.01,2.765-4.085,4.737s-1.613,3.155,1.183,1.972,4.301-4.731,4.301-5.376-1.40-1.33-1.40-1.33z"
     fill="#FFF"
     id="path16" /><path
     d="M357.46,104.91c-0.985-1.159-0.944,3.095-3.59,3.59s-0.711,2.108,0.794,2.108,5.57-2.44,2.80-5.70z"
     fill="#FFF"
     id="path18" /><path
     d="M361.62,113.59c2,2,92.167,96.667,94.667,101.67s2.666,0.834,3.5,0,5.834-14.5,6.834-14.5,7.666,32.667,6.833,37.167-34.584-5.083-36.167-6.667,14-6.5,15-6.5,1.5-1.667-0.833-4-91.333-101.5-92.333-102.5,0.34-4.67,2.50-4.67z"
     fill="#FFF"
     id="path20" /><radialGradient
     cx="501.2793"
     cy="301.1816"
     gradientUnits="userSpaceOnUse"
     id="SVGID_1_"
     r="67.8162"><stop
       offset="0"
       stop-color="#F00"
       id="stop23" /><stop
       offset="0.2281"
       stop-color="#F80405"
       id="stop25" /><stop
       offset="0.554"
       stop-color="#E51013"
       id="stop27" /><stop
       offset="0.937"
       stop-color="#C72329"
       id="stop29" /><stop
       offset="1"
       stop-color="#C1272D"
       id="stop31" /></radialGradient><path
     clip-rule="evenodd"
     d="M508.54,284.41c-28.598-10.637-62.114,20.368-24.776,54.927,22.713,21.023,101.60,16.052,101.60,16.052s-2.494-78.099-24.368-99.98c-36.45-36.47-69.54,7.66-52.45,29z"
     fill="url(#SVGID_1_)"
     fill-rule="evenodd"
     id="path33"
     style="fill:#f90304;fill-opacity:1" /><radialGradient
     cx="594.0615"
     cy="444.9248"
     gradientUnits="userSpaceOnUse"
     id="SVGID_2_"
     r="11.6528"><stop
       offset="0"
       stop-color="#F00"
       id="stop36" /><stop
       offset="0.2281"
       stop-color="#F80405"
       id="stop38" /><stop
       offset="0.554"
       stop-color="#E51013"
       id="stop40" /><stop
       offset="0.937"
       stop-color="#C72329"
       id="stop42" /><stop
       offset="1"
       stop-color="#C1272D"
       id="stop44" /></radialGradient><circle
     cx="599.292"
     cy="448.193"
     r="10"
     id="circle46"
     style="fill:#f90304;fill-opacity:1"
     clip-rule="evenodd"
     fill-rule="evenodd"
     fill="url(#SVGID_2_)" /><radialGradient
     cx="654.5615"
     cy="367.3213"
     gradientUnits="userSpaceOnUse"
     id="SVGID_3_"
     r="11.6528"><stop
       offset="0"
       stop-color="#F00"
       id="stop49" /><stop
       offset="0.2281"
       stop-color="#F80405"
       id="stop51" /><stop
       offset="0.554"
       stop-color="#E51013"
       id="stop53" /><stop
       offset="0.937"
       stop-color="#C72329"
       id="stop55" /><stop
       offset="1"
       stop-color="#C1272D"
       id="stop57" /></radialGradient><circle
     clip-rule="evenodd"
     cx="659.792"
     cy="370.59"
     fill="url(#SVGID_3_)"
     fill-rule="evenodd"
     r="10"
     id="circle59"
     style="fill:#f90304;fill-opacity:1" /><radialGradient
     cx="688.0615"
     cy="483.8213"
     gradientUnits="userSpaceOnUse"
     id="SVGID_4_"
     r="11.6528"><stop
       offset="0"
       stop-color="#F00"
       id="stop62" /><stop
       offset="0.2281"
       stop-color="#F80405"
       id="stop64" /><stop
       offset="0.554"
       stop-color="#E51013"
       id="stop66" /><stop
       offset="0.937"
       stop-color="#C72329"
       id="stop68" /><stop
       offset="1"
       stop-color="#C1272D"
       id="stop70" /></radialGradient><circle
     cx="694.33429"
     cy="483.96304"
     r="10"
     id="circle72"
     style="clip-rule:evenodd;fill:#f90304;fill-opacity:1;fill-rule:evenodd" /><path
     style="fill:none;fill-rule:evenodd;stroke:#000000;stroke-width:1px;stroke-linecap:butt;stroke-linejoin:miter;stroke-opacity:1"
     d="M 36.930177,99.128359 C 53.451572,74.832189 59.282653,83.57881 59.282653,83.57881 L 58.310806,63.170028 c 0,0 -8.746621,5.831081 -10.690314,9.718468 -1.943694,3.887387 1.943693,0.971847 -5.831081,7.774774 -7.774774,6.802927 -11.662161,2.91554 -7.774774,10.690314 3.887387,7.774775 6.802927,9.718466 6.802927,9.718466 L 37.902024,90.381738 18.465089,82.606964"
     id="path3482"
     inkscape:connector-curvature="0" /><ellipse
     style="fill:#000000;fill-opacity:1"
     id="path3487"
     cx="574.84735"
     cy="96.698738"
     rx="17.979166"
     ry="19.922859" /><ellipse
     style="fill:#000000;fill-opacity:1"
     id="path3489"
     cx="26.239862"
     cy="91.353584"
     rx="18.465088"
     ry="15.549548" /><ellipse
     style="fill:#ffffff;fill-opacity:1"
     id="path3491"
     ry="7.2888508"
     rx="11.662161"
     cy="101.55798"
     cx="33.042789" /><ellipse
     style="fill:#ffffff;fill-opacity:1"
     id="path3493"
     cx="23.843016"
     cy="92.619537"
     rx="2.6174326"
     ry="9.4978838"
     inkscape:transform-center-x="6.0331346"
     inkscape:transform-center-y="0.56971287" /><ellipse
     style="fill:#ffffff;fill-opacity:1"
     id="path3499"
     cx="41.78941"
     cy="92.133621"
     rx="2.9155402"
     ry="8.9384317" /><path
     style="fill:#ffffff;fill-opacity:1"
     id="path3504"
     sodipodi:type="arc"
     sodipodi:cx="42.761257"
     sodipodi:cy="98.576904"
     sodipodi:rx="1.9436935"
     sodipodi:ry="12.213622"
     sodipodi:start="0"
     sodipodi:end="5.759266"
     d="m 44.704951,98.576904 a 1.9436935,12.213622 0 0 1 -1.689836,12.109006 1.9436935,12.213622 0 0 1 -2.131241,-8.946 1.9436935,12.213622 0 0 1 1.133132,-14.445797 1.9436935,12.213622 0 0 1 2.427228,5.17259 l -1.682977,6.110201 z" /><path
     inkscape:connector-curvature="0"
     d="m 170.58605,17.729489 -7.16239,32.936595 c 3.06415,-0.472391 5.80287,0.866736 6.18578,3.024881 0.38869,2.206697 -1.82689,4.441641 -4.94894,4.992594 -3.12217,0.550226 -5.96834,-0.79235 -6.35804,-2.998868 -0.2773,-1.589935 0.80487,-3.262503 2.75578,-4.259635 C 150.00208,45.983774 127.8163,37.988779 127.8163,37.988779 l 21.34022,33.261763 29.93566,-5.278466 29.93568,-5.278468 8.67706,-38.554618 c 0,0 -18.11338,15.100826 -26.64212,23.993206 2.17422,0.269722 3.76313,1.471345 4.04646,3.060217 0.38869,2.206709 -1.82687,4.441638 -4.94893,4.992593 -3.12219,0.550228 -5.96833,-0.792339 -6.35804,-2.998869 -0.37864,-2.158885 1.73723,-4.354031 4.77816,-4.958119 L 170.5868,17.729355 Z"
     id="path7873" /><g
     id="g4117"
     inkscape:transform-center-x="237.43258"
     inkscape:transform-center-y="-236.33613"
     transform="matrix(1.2011992,-0.21180384,0.21180384,1.2011992,-55.961919,26.94358)"><path
       inkscape:connector-curvature="0"
       id="path3344"
       d="m 151.71043,44.047506 c -4.02792,-5.25736 -7.11553,-10.79239 -8.00272,-14.34613 -0.75488,-3.02377 -0.47922,-6.42077 0.71844,-8.85341 2.55356,-5.186667 6.37144,-7.524234 12.33144,-7.550152 3.53453,-0.01537 4.47829,-0.291022 7.1061,-2.075529 1.05322,-0.715227 2.82648,-1.7284206 3.94059,-2.2515426 1.90984,-0.896753 2.21643,-0.948976 5.36249,-0.913432 3.73704,0.04222 6.70064,0.626088 8.94141,1.761571 1.74677,0.8851556 2.35014,0.9388856 3.27429,0.2915796 1.13676,-0.7962166 3.97187,-1.6333956 6.72885,-1.9869646 4.78815,-0.614056 8.78178,0.51828 13.13942,3.7254976 l 1.74911,1.287338 4.16619,0.163883 c 3.7776,0.148597 4.32932,0.243924 5.91505,1.022005 2.42984,1.192267 5.34949,4.151919 6.59839,6.688796 0.9056,1.83952 1.00591,2.30662 1.00498,4.67968 -0.001,3.27473 -0.47195,5.37857 -1.80045,8.04757 -1.16072,2.33195 -6.47919,10.43939 -7.38738,11.2613 -0.48999,0.44343 -1.37792,0.56233 -5.21494,0.69833 l -4.62441,0.16391 1.07772,-1.48709 c 2.55031,-3.51901 7.84374,-11.64874 8.7077,-13.37339 1.75928,-3.51195 1.81137,-5.48596 0.20229,-7.66694 -1.00593,-1.36346 -2.22617,-2.13175 -3.38962,-2.13419 -1.1675,-0.002 -1.25219,0.19423 -1.62286,3.76884 -0.47707,4.60077 -0.90056,5.44372 -7.51608,14.96094 l -4.05906,5.83947 -3.38982,-0.003 c -1.8644,-0.002 -3.89734,-0.0872 -4.51764,-0.18979 -1.42051,-0.23483 -1.71774,0.33307 4.41242,-8.43037 2.67585,-3.8253 5.40125,-7.98876 6.05645,-9.25214 1.09477,-2.111 1.17944,-2.44636 1.04535,-4.14048 -0.0803,-1.01388 -0.3979,-2.37443 -0.70586,-3.02343 -2.95528,-6.22777 -12.94724,-6.71415 -13.80761,-0.672113 -0.12495,0.877493 -0.23716,7.021583 -0.24933,13.653543 l -0.0222,12.05812 -3.64019,0 -3.64019,0 -0.01,-11.29974 c -0.013,-14.839847 -0.16109,-15.879973 -2.51005,-17.63372 -1.14711,-0.856442 -5.596,-1.069767 -7.7045,-0.369433 -2.94268,0.977401 -4.92964,3.984949 -4.92964,7.461733 0,2.99172 -0.0608,2.88566 9.82728,17.13671 l 2.94497,4.2444 -1.15057,0.23905 c -0.63281,0.13147 -2.71622,0.20085 -4.62979,0.15416 l -3.47922,-0.0849 -2.09066,-2.88181 c -3.69033,-5.08682 -6.91278,-10.09258 -8.2018,-12.74065 -1.17508,-2.41402 -1.26271,-2.77677 -1.37394,-5.68779 l -0.11882,-3.10932 -1.0765,0 c -1.37675,0 -3.56833,1.27628 -4.1616,2.42352 -0.58443,1.13017 -0.58707,4.00441 -0.006,5.96287 0.521,1.7544 2.56934,5.10413 6.88473,11.2589 1.67711,2.39195 2.95398,4.44468 2.83751,4.56163 -0.11648,0.11696 -2.09618,0.25682 -4.39935,0.31081 l -4.18757,0.0981 -1.35346,-1.76657 z"
       style="fill:#ffffff;fill-opacity:1" /><path
       inkscape:connector-curvature="0"
       id="path3346"
       d="m 181.81221,4.0303864 c -2.37037,-1.026723 -3.94354,-3.375055 -3.94354,-5.886692 0,-3.466192 2.63705,-6.066974 6.15158,-6.066974 1.97857,0 3.90599,1.131032 5.2602,3.086743 1.56588,2.261409 0.99689,5.721128 -1.29765,7.890348 -1.58906,1.502265 -4.05569,1.892642 -6.17059,0.976575 z"
       style="fill:#ffffff;fill-opacity:1" /><path
       inkscape:connector-curvature="0"
       id="path3348"
       d="m 156.24715,58.227216 c -1.9137,-0.26655 -2.96861,-1.30232 -3.15126,-3.0941 -0.2041,-2.00218 0.6493,-3.1814 2.53515,-3.50303 0.80204,-0.13678 13.81212,-0.24869 28.91131,-0.24869 30.53568,0 29.01927,-0.10145 30.33485,2.02934 0.81278,1.31644 0.5848,2.19096 -0.99325,3.81012 l -1.2565,1.28923 -27.46573,-0.0405 c -15.10615,-0.0223 -28.11771,-0.13134 -28.91457,-0.24234 z"
       style="fill:#ffffff;fill-opacity:1" /></g><text
     xml:space="preserve"
     style="font-style:normal;font-variant:normal;font-weight:normal;font-stretch:normal;font-size:180px;line-height:125%;font-family:TheFreshPrince;-inkscape-font-specification:'TheFreshPrince, Normal';text-align:start;letter-spacing:0px;word-spacing:0px;writing-mode:lr-tb;text-anchor:start;fill:#ff0000;fill-opacity:1;stroke:none;stroke-width:1px;stroke-linecap:butt;stroke-linejoin:miter;stroke-opacity:1"
     x="342.18295"
     y="43.113384"
     id="text3536"
     sodipodi:linespacing="125%"
     inkscape:transform-center-x="-56.014465"><tspan
       sodipodi:role="line"
       id="tspan4002"
       x="342.18295"
       y="43.113384"
       style="-inkscape-font-specification:'TheFreshPrince, Normal';font-family:TheFreshPrince;font-weight:normal;font-style:normal;font-stretch:normal;font-variant:normal;font-size:140px;text-anchor:start;text-align:start;writing-mode:lr;line-height:125%">LONG LIVE</tspan></text>
<text
     xml:space="preserve"
     style="font-style:normal;font-weight:normal;font-size:40px;line-height:125%;font-family:sans-serif;letter-spacing:0px;word-spacing:0px;fill:#000000;fill-opacity:1;stroke:none;stroke-width:1px;stroke-linecap:butt;stroke-linejoin:miter;stroke-opacity:1"
     x="465.9176"
     y="143.53387"
     id="text4004"
     sodipodi:linespacing="125%"><tspan
       sodipodi:role="line"
       id="tspan4006"
       x="465.9176"
       y="143.53387"
       style="font-style:normal;font-variant:normal;font-weight:normal;font-stretch:normal;font-size:140px;line-height:125%;font-family:TheFreshPrince;-inkscape-font-specification:'TheFreshPrince, Normal';text-align:start;writing-mode:lr;text-anchor:start;fill:#ff0000">THE QUEEN</tspan></text>
<text
     xml:space="preserve"
     style="font-style:normal;font-weight:normal;font-size:40px;line-height:125%;font-family:sans-serif;letter-spacing:0px;word-spacing:0px;fill:#000000;fill-opacity:1;stroke:none;stroke-width:1px;stroke-linecap:butt;stroke-linejoin:miter;stroke-opacity:1"
     x="53.158386"
     y="520.85419"
     id="text4008"
     sodipodi:linespacing="125%"><tspan
       sodipodi:role="line"
       id="tspan4010"
       x="53.158386"
       y="520.85419"
       style="font-style:normal;font-variant:normal;font-weight:normal;font-stretch:normal;font-size:90px;line-height:125%;font-family:TheFreshPrince;-inkscape-font-specification:'TheFreshPrince, Normal';text-align:start;writing-mode:lr-tb;text-anchor:start;fill:#ff0000">CLTMUSIC.ORG</tspan></text>
<text
     xml:space="preserve"
     style="font-style:normal;font-weight:normal;font-size:40px;line-height:125%;font-family:sans-serif;letter-spacing:0px;word-spacing:0px;fill:#000000;fill-opacity:1;stroke:none;stroke-width:1px;stroke-linecap:butt;stroke-linejoin:miter;stroke-opacity:1"
     x="652.4931"
     y="384.31009"
     id="text4012"
     sodipodi:linespacing="125%"><tspan
       sodipodi:role="line"
       id="tspan4014"
       x="652.4931"
       y="384.31009" /></text>
<text
     xml:space="preserve"
     style="font-style:normal;font-weight:normal;font-size:40px;line-height:125%;font-family:sans-serif;letter-spacing:0px;word-spacing:0px;fill:#000000;fill-opacity:1;stroke:none;stroke-width:1px;stroke-linecap:butt;stroke-linejoin:miter;stroke-opacity:1"
     x="652.4931"
     y="382.22546"
     id="text4016"
     sodipodi:linespacing="125%"><tspan
       sodipodi:role="line"
       id="tspan4018"
       x="652.4931"
       y="382.22546" /></text>
<text
     xml:space="preserve"
     style="font-style:normal;font-weight:normal;font-size:40px;line-height:125%;font-family:sans-serif;letter-spacing:0px;word-spacing:0px;fill:#000000;fill-opacity:1;stroke:none;stroke-width:1px;stroke-linecap:butt;stroke-linejoin:miter;stroke-opacity:1"
     x="654.57776"
     y="378.05615"
     id="text4024"
     sodipodi:linespacing="125%"><tspan
       sodipodi:role="line"
       id="tspan4026"
       x="654.57776"
       y="378.05615"
       style="-inkscape-font-specification:'TheFreshPrince, Normal';font-family:TheFreshPrince;font-weight:normal;font-style:normal;font-stretch:normal;font-variant:normal;font-size:40px;text-anchor:start;text-align:start;writing-mode:lr;line-height:125%">C</tspan></text>
<text
     xml:space="preserve"
     style="font-style:normal;font-variant:normal;font-weight:normal;font-stretch:normal;font-size:40px;line-height:125%;font-family:TheFreshPrince;-inkscape-font-specification:'TheFreshPrince, Normal';text-align:start;letter-spacing:0px;word-spacing:0px;writing-mode:lr-tb;text-anchor:start;fill:#000000;fill-opacity:1;stroke:none;stroke-width:1px;stroke-linecap:butt;stroke-linejoin:miter;stroke-opacity:1"
     x="595.87701"
     y="454.20935"
     id="text4024-7"
     sodipodi:linespacing="125%"><tspan
       sodipodi:role="line"
       id="tspan4046"
       x="595.87701"
       y="454.20935">L</tspan></text>
<text
     xml:space="preserve"
     style="font-style:normal;font-variant:normal;font-weight:normal;font-stretch:normal;font-size:40px;line-height:125%;font-family:TheFreshPrince;-inkscape-font-specification:'TheFreshPrince, Normal';text-align:start;letter-spacing:0px;word-spacing:0px;writing-mode:lr-tb;text-anchor:start;fill:#000000;fill-opacity:1;stroke:none;stroke-width:1px;stroke-linecap:butt;stroke-linejoin:miter;stroke-opacity:1"
     x="689.68365"
     y="492.37527"
     id="text4024-7-3"
     sodipodi:linespacing="125%"><tspan
       sodipodi:role="line"
       id="tspan4076"
       x="689.68365"
       y="492.37527">T</tspan></text>
<path
     inkscape:connector-curvature="0"
     d="m 512.54044,289.86069 c -24.81401,-9.22955 -53.89528,17.67297 -21.49772,47.65923 19.70768,18.24131 88.15661,13.92806 88.15661,13.92806 0,0 -2.164,-67.7652 -21.1437,-86.75097 -31.62706,-31.64441 -60.33869,6.64645 -45.50999,25.16281 z"
     id="path33-7"
     style="clip-rule:evenodd;fill:#000000;fill-opacity:1;fill-rule:evenodd" /></svg>