<?xml version="1.0" standalone="no"?>
<!DOCTYPE svg PUBLIC "-//W3C//DTD SVG 20010904//EN"
 "http://www.w3.org/TR/2001/REC-SVG-20010904/DTD/svg10.dtd">
<svg version="1.0" xmlns="http://www.w3.org/2000/svg"
 width="1431.000000pt" height="1029.000000pt" viewBox="0 0 1431.000000 1029.000000"
 preserveAspectRatio="xMidYMid meet">
<metadata>
Created by potrace 1.14, written by Peter Selinger 2001-2017
</metadata>
<g transform="translate(0.000000,1029.000000) scale(0.100000,-0.100000)"
fill="#000000" stroke="none">
<path d="M0 5140 l0 -5140 7155 0 7155 0 0 5140 0 5140 -7155 0 -7155 0 0
-5140z m3681 4755 c119 -62 73 -245 -62 -245 -127 0 -183 168 -80 237 40 27
98 30 142 8z m342 -290 c32 -8 76 -24 99 -36 39 -20 46 -20 134 -9 125 17 174
1 260 -84 53 -52 63 -69 73 -114 17 -81 13 -136 -14 -217 -30 -89 -102 -247
-117 -256 -16 -10 -177 -43 -183 -37 -3 2 27 77 66 166 38 88 75 186 82 217
10 51 9 60 -8 92 -22 40 -82 77 -109 67 -13 -5 -16 -21 -16 -88 0 -44 -5 -99
-11 -121 -13 -45 -146 -345 -160 -359 -10 -11 -180 -38 -188 -31 -5 6 8 39 98
236 94 208 101 235 75 295 -28 70 -80 107 -154 112 -97 7 -160 -34 -160 -104
0 -18 18 -140 41 -271 22 -131 41 -249 42 -262 2 -22 -3 -26 -63 -37 -36 -7
-70 -13 -76 -13 -5 -1 -22 68 -38 157 -69 386 -79 422 -132 447 -28 13 -44 14
-89 6 -74 -14 -109 -34 -135 -77 -28 -45 -31 -124 -5 -174 9 -19 89 -108 177
-196 88 -89 156 -164 151 -167 -5 -3 -49 -14 -97 -23 l-87 -17 -115 114 c-156
155 -197 211 -218 297 -16 64 -19 69 -42 64 -13 -2 -38 -20 -54 -39 -27 -30
-29 -39 -24 -76 11 -70 39 -111 164 -243 66 -69 120 -130 120 -134 0 -9 -126
-40 -163 -40 -30 0 -180 154 -239 244 -46 71 -58 111 -58 191 0 142 94 241
262 275 47 9 70 22 135 77 89 75 99 79 196 94 55 9 90 9 150 -1 76 -12 78 -12
115 12 34 23 129 61 177 71 41 9 82 7 138 -8z m1880 -755 c62 -39 272 -251
604 -610 l273 -295 0 -52 c0 -66 -7 -83 -35 -83 -26 0 -70 46 -578 603 -329
360 -362 404 -344 451 9 23 27 20 80 -14z m-1419 -132 c23 -33 20 -60 -11 -95
l-28 -30 -475 -81 c-261 -45 -535 -91 -608 -103 l-133 -22 -27 20 c-34 25 -42
81 -15 105 20 18 172 49 703 142 565 100 569 100 594 64z m-114 -283 c0 -3
-11 -28 -25 -55 -28 -54 -35 -156 -13 -178 7 -7 14 -63 18 -145 4 -72 12 -145
19 -161 6 -16 9 -42 6 -57 -9 -39 -58 -89 -87 -89 -21 0 -25 -8 -41 -77 -35
-160 -119 -280 -212 -305 -39 -10 -45 -16 -45 -38 0 -14 12 -45 27 -68 34 -53
75 -66 173 -56 66 6 73 9 131 60 160 138 279 139 382 4 30 -40 51 -52 178
-109 343 -153 527 -259 628 -362 92 -93 134 -103 192 -43 92 97 595 499 827
661 l117 82 10 123 c9 107 12 123 28 126 49 10 107 -46 107 -102 0 -24 3 -26
44 -26 39 0 47 -4 58 -27 8 -17 25 -32 46 -38 53 -15 40 -56 -23 -70 -85 -20
-161 -92 -350 -330 -212 -267 -442 -480 -692 -643 -118 -77 -175 -102 -229
-102 -90 0 -611 174 -802 267 l-72 36 -53 -50 c-59 -56 -105 -85 -159 -103
-21 -6 -38 -15 -38 -18 0 -4 7 -41 15 -82 22 -106 31 -404 16 -526 -33 -272
-129 -564 -261 -796 -28 -49 -50 -90 -50 -92 0 -2 9 -6 19 -9 36 -9 116 13
210 59 159 78 224 80 275 11 17 -23 22 -46 24 -116 5 -118 -16 -195 -77 -291
-58 -88 -71 -161 -47 -242 17 -55 49 -267 68 -448 8 -75 13 -245 12 -425 0
-277 -2 -306 -22 -379 -29 -103 -28 -115 9 -175 29 -46 31 -56 27 -118 -3 -54
-11 -83 -41 -140 -34 -67 -37 -78 -37 -160 0 -106 -20 -391 -60 -880 -17 -199
-30 -390 -30 -425 0 -82 30 -146 80 -170 51 -25 197 -55 330 -68 207 -20 315
-58 297 -103 -8 -22 -33 -21 -143 3 -49 11 -110 20 -137 20 l-47 0 16 -25 c36
-55 2 -66 -113 -39 -58 14 -107 15 -323 9 l-255 -6 -35 23 c-52 35 -52 70 0
118 l41 37 10 145 c11 146 10 155 -23 463 -15 144 -15 621 1 724 14 92 44 182
66 201 23 19 18 55 -15 107 -17 26 -35 63 -40 83 -13 45 -13 126 0 170 9 32 4
48 -54 180 -115 263 -175 489 -198 753 -6 75 -16 137 -21 137 -6 0 -29 -11
-51 -24 -74 -43 -114 -39 -170 20 -63 65 -77 58 -81 -36 -9 -223 -204 -806
-312 -930 -30 -35 -30 -36 -36 -187 -4 -125 -9 -160 -27 -200 -33 -74 -37
-158 -11 -227 71 -191 4 -800 -119 -1065 -50 -109 -59 -169 -35 -240 12 -37
28 -61 57 -84 22 -17 51 -51 65 -75 24 -40 24 -45 10 -59 -14 -15 -30 -15
-139 -5 -201 20 -365 16 -584 -13 -43 -6 -52 -4 -58 10 -3 10 -2 23 4 30 29
35 -45 33 -166 -6 -90 -29 -98 -30 -113 -14 -15 15 -14 18 13 40 58 46 211 96
376 122 199 32 227 40 240 63 6 11 13 91 15 177 14 443 64 921 121 1145 31
123 30 141 -6 231 -39 98 -40 165 -4 233 l26 48 -12 126 c-6 69 -14 298 -17
510 -6 420 4 612 38 712 26 79 24 128 -12 233 -17 50 -50 164 -75 254 -39 146
-43 169 -33 205 27 102 128 150 235 112 51 -17 193 -102 269 -160 51 -38 60
-42 63 -26 4 24 -23 77 -171 335 -66 116 -139 248 -161 295 -41 84 -41 86 -41
200 0 63 3 237 8 385 l7 270 -41 25 c-23 14 -67 53 -100 87 l-58 63 -128 -44
c-70 -24 -235 -83 -365 -130 -240 -87 -287 -97 -345 -75 -43 16 -77 53 -190
203 -199 267 -378 544 -471 730 -30 61 -63 123 -74 138 -22 32 -137 114 -194
138 -22 10 -51 31 -65 47 -23 27 -25 38 -27 154 -1 68 3 145 9 171 25 108 68
71 77 -67 l5 -85 41 8 c51 9 100 9 146 1 l35 -7 1 67 c2 105 39 169 73 127 21
-25 34 -138 24 -199 -7 -37 -6 -58 0 -60 7 -2 6 -40 -2 -111 l-12 -108 27 -36
c15 -21 105 -131 199 -247 225 -275 319 -395 372 -477 41 -63 45 -66 71 -58
16 4 70 33 120 64 51 31 133 81 183 112 100 61 313 170 399 204 39 16 74 41
126 94 89 91 164 131 244 131 70 0 114 -22 180 -89 51 -52 53 -53 103 -49 123
9 176 24 198 54 11 16 23 44 26 62 5 33 4 34 -55 56 -108 39 -167 130 -179
276 -6 74 -29 115 -63 115 -23 0 -30 44 -30 188 0 105 1 114 20 119 19 5 20
11 13 104 -3 57 -2 99 3 99 5 1 218 39 474 84 536 97 480 87 480 81z m2797
-968 c15 -19 195 -209 398 -423 730 -768 1202 -1279 1253 -1356 13 -21 28 -38
33 -38 10 0 41 60 99 193 23 53 46 97 51 97 27 0 142 -624 121 -657 -14 -20
-64 -23 -160 -9 -177 27 -482 113 -482 137 0 14 112 64 204 91 57 16 76 26 76
39 0 10 -378 437 -840 950 -462 513 -840 940 -840 949 0 22 28 60 45 60 7 0
26 -15 42 -33z"/>
<path d="M3664 8020 c-12 -4 -31 -21 -43 -36 -39 -50 -22 -84 42 -84 66 0 123
80 85 118 -14 14 -53 15 -84 2z"/>
<path d="M3074 7121 c-71 -43 -73 -206 -3 -255 13 -9 27 -16 31 -16 5 0 8 31
8 68 0 38 6 82 14 98 7 16 16 50 20 77 5 44 4 47 -17 47 -12 0 -36 -9 -53 -19z"/>
<path d="M4562 6814 c-57 -60 -113 -122 -123 -139 -22 -34 -25 -65 -7 -65 7 0
70 60 140 132 88 91 128 139 126 152 -6 43 -33 27 -136 -80z"/>
<path d="M2617 6724 c-76 -27 -319 -159 -329 -177 -19 -36 6 -42 74 -17 155
56 350 144 359 162 25 47 -25 62 -104 32z"/>
<path d="M4043 6413 c-41 -16 12 -78 76 -89 64 -10 117 -31 161 -63 67 -48
140 -41 140 14 0 31 -24 48 -118 84 -136 52 -221 70 -259 54z"/>
<path d="M3462 6375 c-35 -8 -87 -27 -115 -43 -44 -25 -53 -34 -55 -61 -2 -18
2 -39 9 -47 18 -22 64 -17 97 11 54 46 131 75 198 75 46 0 68 5 85 19 31 26
17 41 -48 52 -66 11 -98 10 -171 -6z"/>
<path d="M3789 6005 c-50 -16 -84 -47 -76 -69 8 -19 245 -29 265 -10 31 27
-29 76 -108 88 -19 3 -56 -1 -81 -9z"/>
<path d="M3774 5804 c-61 -22 -108 -65 -100 -91 10 -30 35 -36 91 -22 37 9 65
9 129 -1 44 -7 90 -11 101 -9 51 10 8 84 -70 120 -47 22 -95 23 -151 3z"/>
<path d="M3730 5565 c-30 -7 -69 -16 -87 -20 -39 -9 -66 -36 -57 -59 8 -20 36
-20 111 -1 74 19 194 19 285 -1 78 -17 128 -9 128 21 0 58 -231 95 -380 60z"/>
<path d="M3768 4788 c-16 -5 -29 -14 -29 -19 -6 -32 -3 -34 71 -35 54 -1 88
-7 122 -23 37 -17 52 -19 68 -11 11 6 20 14 20 18 0 18 -32 51 -64 66 -38 18
-144 21 -188 4z"/>
<path d="M3737 4473 c-4 -3 -7 -16 -7 -29 0 -24 27 -38 131 -68 90 -26 187 14
143 59 -10 10 -34 15 -70 15 -30 0 -71 7 -91 15 -37 16 -95 20 -106 8z"/>
</g>
</svg>
